<svg xmlns="http://www.w3.org/2000/svg" viewBox="0 0 2178.26 1889.3"><defs><style>.cls-1{fill:#fff;opacity:0.72;}</style></defs><title>Asset 1</title><g id="Layer_2" data-name="Layer 2"><g id="Capa_1" data-name="Capa 1"><path class="cls-1" d="M0,1889.3,1088.74,0,2178.26,1889.3Zm1022.48-805.37c-16.84,18-30.93,34.61-46.66,49.47-15.17,14.33-33.22,25.71-47.69,40.63-8.25,8.52-11.89,21.52-17.44,32.58-.31.63.69,2.17,1.4,3,8.34,9.93,4.79,20.73,3.49,31.91-1,8.77-1.49,19.79,2.88,26.52,7.11,11,17.66,20.18,28.08,28.46,10,7.94,15.83,32.14,9,42.79-4.52,7.07-8,14.84-12.19,22.89l17.11,4c-.15.58-.31,1.15-.46,1.72l-16.91,1.57c17.17,2.58,34,5.63,50.74,5.17s33.46-4.38,50.18-6.79c0,.55,0,1.1,0,1.66l-14.09,4.56-.17,4.55,29.66,8.16v-10.73q.22-88.1.41-176.19c.05-55.65-.11-111.29-.14-166.93q0-87.53,0-175,0-78.82.25-157.65c0-7.69-2.73-10.34-10.42-9.2-26.74,3.94-53.9,5.83-80.23,11.57-91,19.82-172.7,59.38-244.43,119C637.48,894.2,577.3,985.5,544.31,1093.8c-33.39,109.61-32.87,220,.07,330,.74,2.49,2.58,4.64,3.91,6.94,4.84-16,9.49-31.52,9-46.85-.77-23.83-4.92-47.23,5.34-70.49,3.22-7.3,3-17.9.27-25.58-3-8.5-10.73-15.26-16.08-23-12.59-18.21-10.51-33.38,7.92-45.4,10.25-6.69,11-13.61,6-23.2-1.4-2.66-2.4-5.54-3.55-8.24l8.43-5.07c-4.58-4.18-8.61-7.18-11.77-10.91-5-5.9-3.47-16.73,2.06-16.2,12.68,1.2,13.58-8.4,18-16.28,4,20.15,24.13,35.56,14.23,59l-9.35-3.51v14.52c25-18.51,48.35-35.44,71.23-53,6.62-5.08,11.8-12,17.83-17.92,1.77-1.74,4.09-4,6.26-4.07,24.45-1.37,48.92-2.37,73.39-3.47.07,1.74.13,3.47.2,5.2-9.7,0-19.42-.23-29.12.06-17.5.52-28.14,5.15-21.75,26-4.88,2.17-11.77,3.94-4.43,11.67-12.36-.71-23.72-3.32-34.39-1.59-26.49,4.3-43.46,25.21-63.54,40.36-3.56,2.68-4.83,10.87-4.15,16.13,1.26,9.74,4.73,19.2,7.28,28.75-9.74,2.32-14.92,15.32-10.16,26.41,1.71,4,5.9,9.46,9.36,9.77,13.43,1.23,27.09,7.34,40.66-1.16,2.78-1.75,8.82.42,12.65,2.25,1.59.76,2.78,6.82,1.64,8-2.7,2.71-6.74,4.47-10.54,5.62-8.31,2.51-16.82,4.36-25.21,6.63-.66.18-.82,1.84-1.53,2.29-2.42,1.54-4.88,3.63-7.54,4-3,.45-6.21-.71-9.33-1.18-.56.92-1.12,1.84-1.67,2.76,6.92,7,13.1,14.9,20.91,20.63,15.83,11.6,17.09,28.1,16.67,45-.29,11.77-2.86,23.47-3.39,35.25-.14,3.16,3.72,9.35,5.3,9.2,4.86-.44,10.53-1.27,10.58-9.32,0-4.24,3.91-8.45,6.06-12.68l2.56,1.29c.44,5,.87,10,1.38,15.83,8.32-2.36,14.8-5.08,21.51-5.87,9-1.05,12.19-5.55,13.59-14.08,2.18-13.18,6-26.09,8.75-39.19.88-4.19.6-8.61.94-14.33-3.7.93-5.73,2.17-7.1,1.66-10.65-4-22.11,10.37-32.45-1.43-.4-.46-3,1-5.56,1.93.41-5.54.08-9.9,1.14-13.9,7-26.41,14.3-52.74,21.49-79.1,3.93-14.42,8.1-28.78,11.56-43.32,1-4.24,14.19-26.85,18.27-28.14a11.81,11.81,0,0,1,5.67,0c17.85,3.67,17.84,3.7,26.51-12.33-.59-.91-1.25-1.84-1.83-2.82-2.38-4-7.35-11-6.68-11.62a80.38,80.38,0,0,1,18.53-12.24c1.76-.84,7.85,2.38,8.09,4.23,1.79,13.76,5.63,27.93-3.43,42.78l-9-14.79c-6.14,10.38-2.19,23,10.85,36.21l38.85-19.82c-9,12.64-26.71,9.87-25.61,24.75,3.26,6.08,6.51,12.16,10.34,19.33-4.72.95-7,1.25-9.14,1.86-17.51,4.9-24.3,15.49-21.1,33,1.38,7.57,3.17,15.07,4.47,22.65,1,6.06,0,13.06,2.74,18.13,5,9.31,7.42,17.13-3.21,23.94,8.79,15.4,11.29,30.71,3.45,45,25-7,49.47-13.54,73.76-20.8,2.93-.88,5.47-5.08,7-8.3,3-6.39,4.39-13.55,7.71-19.72,5.48-10.18,14.63-18.87,8.67-32.39-1.15-2.6.93-7.46,2.84-10.44,7.5-11.67,15.66-22.91,23.32-34.49,7.12-10.75,5.18-19.09-5.06-26.17-4.72-3.26-8.27-9-13.35-10.77-8.09-2.81-22.18-7.21-24.68-4-10,13-27,24.55-19.21,45.72,1,2.74-1.52,6.78-2.55,10.76l-15.82-4.46c10.82-9.82-4.49-28.93,16.18-33.48.49-.11.76-1.28,1.1-2,4-8.36,9.68-16.34,11.77-25.15,2.84-12,10.78-17.8,20.34-23.36,13.74-8,13.55-24.83.92-35.07-3.93-3.18-8-9.8-7.32-14.06s6.9-10.45,11.28-11c4.87-.6,12.63,2.83,15.2,6.95,5.91,9.5,9.44,20.49,13.93,30.87l-2.85,1.53-14.67-9c4.34,17,14.61,22.14,25.93,13.45,6.51-5,11.6-8.39,18.93-1.52,1.49,1.4,7,.49,9.2-1.23a357.25,357.25,0,0,0,26.93-23.61c1.67-1.62.75-5.93,1.1-9.8,16.26-1.49,23.22-17.19,35-26.59S1007.63,1094.75,1022.48,1083.93Zm96.06,274.86c25.83,0,49.35-.46,72.83.31,6.28.21,12.49,4.06,18.63,6.48,7.82,3.07,15.53,6.39,26.4,10.88-4.91-15.94.66-24.15,9.6-30.85,4.64-3.47,9.17-7.11,14-10.24,15.21-9.83,30.63-19.35,45.84-29.2,10.31-6.68,12.41-26.27,3.82-33.49,21-28.46,25-48.36,10.38-59.09.71,8.13,1.33,15.16,2,22.67l-7.56-4.13,3,10.43-2.66.88q-3.71-8.1-7.4-16.18l-2.12.93q3,8.47,6,16.93c-4.88-1.4-9.26-7-10.72-6.37-11.92,5.53-9.62-5.93-10.87-9.94-.85-2.75,3.55-7.68,6.43-10.89,2.17-2.42,7.16-3,8.28-5.54,6.29-14.23,19.63-13.13,31.43-15.36,6-1.13,12.11-1.66,18.94-2.56-.33-5.44-.62-10.09-1.06-17.39l-8.27,12.41-3.45.21-3.19-15.42c-8.71,2.16-17.49,5-26.49,6.41-10.06,1.58-19-.47-22.32-11.66l11.34-4q-3.09-7.92-6.17-15.86l-2.3.69c-.44,3.29-.88,6.57-1.71,12.87-2.57-5-4.2-7.06-4.82-9.43-2.8-10.71-4.54-21.77-8.16-32.18-3.32-9.56.65-18.28,7-21.19,7.45-3.45,18-3,26.26-.76,4.07,1.12,6.68,9.89,8.67,15.64,1.84,5.35,2,11.28,3.35,20.1,4.39-5.15,7.08-7.08,8-9.67,3.8-10.19,11.57-12.7,21.28-11.9,12.88,1.06,25.76,2.25,39.18,3.43,2.18-16.38-3.19-30.85-9.68-44.78-5.35-11.49-5.68-22.41.81-33.08q16.23-26.7,33.23-52.91c13.77-21.18,21.6-43.33,14-68.83-1.1-3.69-.86-7.77-1.24-11.67l4.23-1c3.12,10,6.23,19.92,9.7,31l12.55-25.93,3.7,1.33C1454.42,928,1449.56,945,1445,961l28-40.58,4,2.51-18.17,37.32,4.89,4.56,27.64-30.4.58.56-32.22,42.67,33.64-23.7,2.5,2.57-25.72,26.37L1493,974l1.11,2.43-19.19,15,.79,1.38,22.65-8.46,1.4,2.29-18,15.33h12.79l-15.65,8.41c.19.61.39,1.22.59,1.83h14l-25.2,19.51,8.14.71.49,2.8-22.7,5.25,12.59,2.76-14.29,14.14,7.39,3.93-2.25,3.22-19.62-2.86,7.25,5.06c.37,5.39.58,8.59.81,12h-6.76c0,4.16.56,8-.1,11.67-2.1,11.64-4.81,23.17-7,34.81-.89,4.84.7,10.84-1.63,14.58-6.34,10.15-3.39,19.64-1.62,30.41,20.08-15.83,23.73-26.58,17.41-48.66-6.09-21.3-4.57-25,14.7-36,4.37-2.48,8.74-5,13.15-7.35,22.36-12.19,43.4-25.89,56.82-49.82.5,3.77.89,6.69,1.72,12.92l24.41-39.86,2.6,1-8.19,25.3,1.79.93,21.78-30.8,2.8,1.51c-2.92,7.65-5.85,15.3-9.51,24.88,7.93-5.63,13.57-10.43,19.93-13.93,8.14-4.49,9.82-9.16,4.49-17.36-15.13-23.32-28.49-47.87-44.76-70.33s-35-42.73-52.74-64l-2.23,1.61q2,8.38,4,16.76l-3.09,1.7c-6.19-6.62-13.22-12.65-18.4-20-8.92-12.62-16.25-14-27.68-2.9-8.57,8.35-16.49,17.35-25,26.42-2.86-19.58,4.65-33.46,21.76-42.22l-5.58-6.22,12.19-7.5,11.29,7c-29.33-30-63.26-53.46-99.88-72.69-4.22-2.22-14,4.76-20.21,9-1.18.81,2.54,8.77,4.26,14.28-5.71.62-14.28,3.92-21.17,1.78-11.77-3.66-15.91-20-31.91-18.78.57-1,1.14-2.08,1.7-3.12l33,4.47c1.39-1.27,4.68-5.21,8.81-7.79,3.94-2.48,8.77-3.55,15-5.92-5.16-2.84-8.37-4.78-11.73-6.42-66-32.09-135.5-51.27-208.88-56.47-10.84-.77-13,2.42-12.9,12.43.44,48.69.22,97.39.19,146.08q-.12,248.7-.28,497.38Zm957.58,471.11c-120-208.38-239-415-358.71-622.9,7.1,284.73-114.4,490.78-363.88,622.9Zm-1251.33-.05c-248-132.43-370.73-336.43-365.92-617.79L102.8,1829.85ZM947.87,1494.3c0,.42,0,.83-.08,1.25-5.07-1.6-10.54-2.45-15.11-5-8.11-4.43-15.59-10-23.48-14.85-9.84-6-19.65-11.78-28.68,1.64-1.54,2.29-5.21,3.17-7.92,4.64-16.79,9.13-35.41,15.53-46.45,32.93-6.4,10.09-12.55,20.6-20.48,29.42-12.68,14.1-26.83,26.85-40.18,40.34-9.06,9.16-21.72,17.18-25.83,28.28-6.64,17.92-6.28,37.66,1.54,56.6,6.3,15.26,10.49,31.37,16.19,46.9A21.4,21.4,0,0,0,765,1726q128.4,88.23,283.83,99.78c8.56.62,10.82-2.14,10.69-10.09-.26-16.22.31-32.45.32-48.67q.06-169.2,0-338.41c0-23.16.06-23.16-23.7-28.05-20.8-4.28-23.45-3.13-35.19,14.77a114.3,114.3,0,0,1-7.5,10.27c-5.13,6.17-11.22,7.25-18.6,3.71-14.23-6.84-16.92-6-29.65,8.58l41.23,9.41-.63,1.94H922.21c7,9.51,1.1,8.76-3.82,9.24-5.9.58-11.75,1.59-17.62,2.41,0,1.15.05,2.3.07,3.45Zm173.56-65.8-2.89,1.73q0,9.24,0,18.48c.09,34,.27,68,.26,102q-.08,132.74-.38,265.47c0,7.74,1.46,11,10.36,10.13,51.26-5.13,101.83-13.38,150.25-31.67,5-1.88,9.54-6.31,12.94-10.62,14.24-18.11,27.91-36.66,41.9-55,15.45-20.19,31.7-39.82,46.26-60.63,8-11.4,6.91-24.39.78-37.46-5.54-11.81-12.55-20.68-23.82-28.18-9.25-6.15-13.6-19.44-28.51-17.07-1.76.28-4.54-4.71-6.56-7.46-4.1-5.57-8-11.26-12-17a13.08,13.08,0,0,1-1.13-3.25l5.72-3.34-24.12-19.35,2.28-2.91,13,8.41c.29-22.71-15.17-42-34.61-44.71-4-.56-8.53-.11-12-1.77-10.42-5-20.17-11.39-30.69-16.1-12.9-5.76-26.36-14.68-39.5-14.56-25.1.23-43.93-7.55-58.45-27.54C1128.31,1433.06,1124.52,1431,1121.43,1428.5Zm.31-1255.59-2.58.61c-.21,3.6-.62,7.2-.61,10.8,0,29,.25,58,.26,86.94q0,175-.16,350.08c0,8.31,2.08,11.64,10.77,12.08,16.56.84,33.17,2.12,49.56,4.52,70.47,10.34,137.72,31.07,200.55,64.92,22.92,12.35,45,26.17,67.52,39.32l1.62-1.19Q1285.2,457,1121.74,172.91Zm-61.85,2.94-3.57-.75-326,565.44c3.93.77,5.74.09,7.28-1,93-63.53,196-98.47,308.14-106.3,10.88-.76,14.61-4.17,14.37-15.2-.75-33.59-.66-67.21-.64-100.82q.11-144.86.41-289.71C1059.92,210.31,1059.89,193.08,1059.89,175.85ZM1549.42,1116c-10.73,1.88-19.39,3.38-28,5-1.07.19-2.61.39-3,1.11-5.5,9.69-11.86,18.8-16.44,29.15-4.1,9.28-9.34,20.23-17.33,25.14-15.19,9.35-32.71,14.91-46.93,21,7,14.5,15.55,31.48,23.51,48.73,13.49,29.24,28.22,57.54,54,78.28,1.64,1.32,3.71,3.79,3.5,5.46-2,16.13,6.36,28.51,15.33,40,14.72,18.82,30.12,37.48,54,45.34,3.86,1.27,10.87.73,13-1.83,10.82-12.92,18.89-27.42,16.52-45.29-.35-2.69-1.72-6.56-3.73-7.48a289.25,289.25,0,0,0-27.93-10.88c-2-.66-6.76.84-6.82,1.58-.39,5.66-1.5,12.15.78,16.84,1.67,3.42,8.16,4.49,12.5,6.62l2-3-4.5-9.22c4.25-.48,8.94.8,9.59,3.19a61.28,61.28,0,0,1,1.89,19.37c-.13,2.32-3.9,5.74-6.57,6.39-16.52,4-27.48-3.32-31.07-20.11-1.85-8.67-3.62-17.36-5.65-26-1.69-7.2.22-11.48,7.86-13.89,15.61-4.93,30.75-2.34,45.4,2.64,14.16,4.8,31.76,4.9,37.71,26.21,20.18-114.69,6.44-222.35-37.14-327.7l-41.41,23.14,38-7.1,1.23,4.11-49.33,21.13,36-3.38c.33,1.67.67,3.33,1,5l-34.32,10.11,20.14,1.53.37,3.75-27.41,6.33,12.11,5.08-.42,2.17-30.43,2.72Zm-641.9,168-2.86-.46c-3.66,10-9.29,19.77-10.4,30-1.07,9.9-5.5,12.24-13.5,12.76-4.22.28-8.61-.16-12.63.86-2.79.71-6.39,2.81-7.39,5.22-4.86,11.78-9,23.86-13.46,36.17,22.69-3.34,47.81-4.46,70.47-24.06-1.25,6-1.64,8-2,9.78l18.87,2.87c-2.46-13.21,4.9-20.75,15.17-27.27-18.93.67-29.06-7.63-33.15-24.84C914.88,1297.75,910.63,1291,907.52,1284Zm-153,88.2c-5.37-6.41-10.61-14-17.32-19.82-2-1.7-11.83,1.6-11.79,2.29.49,9.87-4.12,13.12-13.25,12.29-1.07-.1-3,1.38-3.37,2.51-4.9,15.26-9.6,30.59-14.34,45.91l3.42,3c15.68-5.53,31.47-10.78,46.94-16.86,2.34-.92,3.66-5.53,4.59-8.68C751.43,1386,752.89,1379,754.54,1372.22Zm433.7,28.47c-2.76-6.37-3.32-11.53-5.85-12.83-16.33-8.41-33.7-11-53-7.84,4.62,13,8.41,24.73,12.92,36.13,4.31,10.9,12.44,18.47,24.48,17.55a36.53,36.53,0,0,0,19.86-8.6c1.55-1.34-3.23-11.31-6.44-16.5-3.58-5.76-8.68-10.58-13.11-15.82l2.67-2.86Zm241.55-178.26c-1.17,48.91,31,114.48,60.6,129.89C1470.5,1309.7,1450.15,1266.06,1429.79,1222.43ZM594.23,1443.16c6.11-.81,13.12-1.33,19.9-2.85,2.58-.57,5.37-3,6.79-5.34,3.72-6.16-.94-31.46-6.3-37.31C595.65,1408.14,606.22,1431.71,594.23,1443.16Zm382.59-33.36c-9.41,1.67-16.92-17.89-33.61-7.33l39.17,16.8c7.44-7.11,15.92-15,24-23.16,1.56-1.59,1.61-4.65,2.36-7-2.81-.35-6.72-2-8.24-.82C992.71,1394.62,985.54,1401.73,976.82,1409.8Zm222.23-4.89-2.34,4.42c4,4.72,8,13.37,12,13.38,10.84,0,21.71-3.58,32.57-5.75.24-1.12.48-2.24.73-3.35Zm368.85-364.32.71,1.31,40-15.92-7.79-16.18Zm-272.79,454.26,1.46-3.71c-11.56-10.37-54-26.12-66.42-22.94ZM895.3,1367.7l.31,3.1c10.82,2.07,21.58,4.7,32.49,5.78,2.56.25,5.63-4.75,8.47-7.33q-1-2.13-2.05-4.26Zm417-6.47c-.83-7.46-1.56-13.92-2.56-22.77l-22.37,20.18ZM780,1541.7l4.06,3.66,36-43.1-2.53-2.34Zm618.41,20.07-28.59-15.88C1381.26,1567.86,1385.58,1570.38,1398.43,1561.77ZM952.14,1421.28c-17-8.34-23.39-4.53-22.33,12.89Zm104.73-17.76c-3.5-13.42-11.46-16.41-24.09-10Zm72.33,20.71-7.5-27.87-3.06.9C1121.52,1405.59,1112.78,1417.45,1129.2,1424.23Zm-250.39,24.66,8.83-8.71c-2.86-1.88-6-5.59-8.51-5.17-3.16.56-5.75,4.43-8.59,6.87Zm557.61-74.41,3.69-1.52c-.15-10.8-7.24-18.22-15.31-25.18Zm-96,104.76-1.29,5,23.75,6.47,1.41-5.2Zm66.71-175.12c-7.08,16.79,9.27,20.26,11.86,29.86C1415.39,1324.87,1411.77,1315.77,1407.14,1304.12Zm-57.54,270.59,3.92-4.34-14.61-12.7-3.44,3.81Z"/></g></g></svg>